{
	"asset":{
		"generator":"Khronos glTF Blender I/O v4.0.44",
		"version":"2.0"
	},
	"extensionsUsed":[
		"KHR_materials_specular",
		"KHR_materials_ior"
	],
	"scene":0,
	"scenes":[
		{
			"name":"Scene",
			"nodes":[
				0
			]
		}
	],
	"nodes":[
		{
			"mesh":0,
			"name":"textured",
			"rotation":[
				0.7071068286895752,
				0,
				0,
				0.7071068286895752
			],
			"scale":[
				2.732998847961426,
				2.732998847961426,
				2.732998847961426
			],
			"translation":[
				-0.061554744839668274,
				0.2854281961917877,
				-0.06308899819850922
			]
		}
	],
	"materials":[
		{
			"doubleSided":true,
			"extensions":{
				"KHR_materials_specular":{
					"specularFactor":0
				},
				"KHR_materials_ior":{
					"ior":1.4500000476837158
				}
			},
			"name":"textured_0",
			"pbrMetallicRoughness":{
				"baseColorTexture":{
					"index":0
				},
				"metallicFactor":0,
				"roughnessFactor":0.9683772325515747
			}
		}
	],
	"meshes":[
		{
			"name":"textured",
			"primitives":[
				{
					"attributes":{
						"POSITION":0,
						"NORMAL":1,
						"TEXCOORD_0":2
					},
					"indices":3,
					"material":0
				}
			]
		}
	],
	"textures":[
		{
			"sampler":0,
			"source":0
		}
	],
	"images":[
		{
			"mimeType":"image/jpeg",
			"name":"textured_0_dcDnbkIx",
			"uri":"textured_0_dcDnbkIx.jpg"
		}
	],
	"accessors":[
		{
			"bufferView":0,
			"componentType":5126,
			"count":23028,
			"max":[
				0.9993910193443298,
				1,
				1
			],
			"min":[
				-0.9993910193443298,
				-1,
				-1
			],
			"type":"VEC3"
		},
		{
			"bufferView":1,
			"componentType":5126,
			"count":23028,
			"type":"VEC3"
		},
		{
			"bufferView":2,
			"componentType":5126,
			"count":23028,
			"type":"VEC2"
		},
		{
			"bufferView":3,
			"componentType":5123,
			"count":31860,
			"type":"SCALAR"
		}
	],
	"bufferViews":[
		{
			"buffer":0,
			"byteLength":276336,
			"byteOffset":0,
			"target":34962
		},
		{
			"buffer":0,
			"byteLength":276336,
			"byteOffset":276336,
			"target":34962
		},
		{
			"buffer":0,
			"byteLength":184224,
			"byteOffset":552672,
			"target":34962
		},
		{
			"buffer":0,
			"byteLength":63720,
			"byteOffset":736896,
			"target":34963
		}
	],
	"samplers":[
		{
			"magFilter":9729,
			"minFilter":9987
		}
	],
	"buffers":[
		{
			"byteLength":800616,
			"uri":"backyard.bin"
		}
	]
}
